<svg width="408" height="408" fill="none" xmlns="http://www.w3.org/2000/svg"><g filter="url(#filter0_d)"><path fill="#000" d="M4 0h400v400H4z"/></g><path d="M198.65 354c-4.8 0-7.95-.75-9.45-2.25-1.2-1.8-1.8-5.1-1.8-9.9V327.9h39.15c9.3 0 15.15-1.95 17.55-5.85 2.4-3.9 3.6-10.5 3.6-19.8V90.75c0-9.3-1.2-15.9-3.6-19.8-2.4-3.9-8.25-5.85-17.55-5.85H169.4V354h-36V51.15c0-4.8.75-7.95 2.25-9.45 1.8-1.8 5.1-2.7 9.9-2.7h95.4c15.6 0 26.55 3.3 32.85 9.9 6.6 6.3 9.9 17.25 9.9 32.85v229.5c0 15.6-3.3 26.7-9.9 33.3-6.3 6.3-17.25 9.45-32.85 9.45h-42.3z" fill="#fff"/><defs><filter id="filter0_d" x="0" y="0" width="408" height="408" filterUnits="userSpaceOnUse" color-interpolation-filters="sRGB"><feFlood flood-opacity="0" result="BackgroundImageFix"/><feColorMatrix in="SourceAlpha" values="0 0 0 0 0 0 0 0 0 0 0 0 0 0 0 0 0 0 127 0"/><feOffset dy="4"/><feGaussianBlur stdDeviation="2"/><feColorMatrix values="0 0 0 0 0 0 0 0 0 0 0 0 0 0 0 0 0 0 0.25 0"/><feBlend in2="BackgroundImageFix" result="effect1_dropShadow"/><feBlend in="SourceGraphic" in2="effect1_dropShadow" result="shape"/></filter></defs></svg>